<svg xmlns="http://www.w3.org/2000/svg" viewBox="0 0 619.31 81.46"><defs><style>.a{fill:#dc3545;}</style></defs><title>Ресурс 4</title><path d="M62.2,28.2H39.8V85h-16V28.2H1.5V15H62.2Z" transform="translate(-1.5 -12)"/><path d="M101.92,75.82V85H68.2V43h32.94v9.18H80v7.08H98.62v8.88H80v7.68Z" transform="translate(-1.5 -12)"/><path d="M148.66,43V85H136.78V68.62h-16.2V85H108.7V43h11.88V58.78h16.2V43Z" transform="translate(-1.5 -12)"/><path d="M202.66,75.58V93.46H191.8V85H164.92v8.46H154V75.58h1.5q3.72-.06,5.25-5.1T162.64,56l.48-13H197V75.58Zm-30.72-7.2a18.52,18.52,0,0,1-2.58,7.2h15.9V52.42H173.2L173,57A82.5,82.5,0,0,1,171.94,68.38Z" transform="translate(-1.5 -12)"/><path d="M242.08,75.82V85H208.36V43H241.3v9.18H220.12v7.08h18.66v8.88H220.12v7.68Z" transform="translate(-1.5 -12)"/><path d="M278,44.89a14.81,14.81,0,0,1,0,27.24,24,24,0,0,1-9.9,1.89h-7.32V85H248.86V43h19.2A24,24,0,0,1,278,44.89Zm-5.1,18.18a5.66,5.66,0,0,0,1.86-4.53A5.76,5.76,0,0,0,272.86,54a8.21,8.21,0,0,0-5.52-1.62h-6.6v12.3h6.6A8.32,8.32,0,0,0,272.86,63.07Z" transform="translate(-1.5 -12)"/><path class="a" d="M370.31,71.65q-9.45,7.95-27.15,8.85v7.6h-14.9V80.4q-17.81-1-27.25-9T291.56,49.8q0-13.8,9.45-21.65t27.25-8.95V12h14.9v7.1q17.7,1,27.15,9t9.45,21.7Q379.76,63.71,370.31,71.65ZM328.26,67.8V31.9q-10.71,1-15.85,5.35T307.26,49.8Q307.26,65.6,328.26,67.8ZM359,62.35q5.19-4.45,5.2-12.65,0-16-21-17.8V67.8Q353.75,66.79,359,62.35Z" transform="translate(-1.5 -12)"/><path class="a" d="M388.38,43H398V70.36l20-27.36h9.12V85h-9.6V57.7l-20,27.3h-9.17Z" transform="translate(-1.5 -12)"/><path class="a" d="M476.15,43V85h-9.72V67.78H447.35V85h-9.72V43h9.72V59.56h19.08V43Z" transform="translate(-1.5 -12)"/><path class="a" d="M515.09,76h-19.5l-3.72,9h-10l18.72-42h9.6L529,85h-10.2ZM512,68.62l-6.66-16.08-6.66,16.08Z" transform="translate(-1.5 -12)"/><path class="a" d="M573.11,43V85h-9.72V67.78H544.31V85h-9.72V43h9.72V59.56h19.08V43Z" transform="translate(-1.5 -12)"/><path class="a" d="M591.86,82.93a20.82,20.82,0,0,1-8.16-7.74,21.32,21.32,0,0,1-3-11.19,21.32,21.32,0,0,1,3-11.19,20.82,20.82,0,0,1,8.16-7.74,26,26,0,0,1,21.54-.87,19.77,19.77,0,0,1,7.41,5.52l-6.24,5.76A13.42,13.42,0,0,0,604,50.56a14,14,0,0,0-7,1.71A12.16,12.16,0,0,0,592.28,57a15,15,0,0,0,0,13.92,12.16,12.16,0,0,0,4.77,4.77,14,14,0,0,0,7,1.71,13.35,13.35,0,0,0,10.56-5l6.24,5.76a19.45,19.45,0,0,1-7.44,5.58,24.69,24.69,0,0,1-9.9,1.92A24.12,24.12,0,0,1,591.86,82.93Z" transform="translate(-1.5 -12)"/></svg>