<svg xmlns="http://www.w3.org/2000/svg" viewBox="0 0 300 120"><defs><style>.a{fill:#e2231a;}.b{fill:#004997;}</style></defs><title>банки</title><path class="a" d="M63.89,54.28A2.84,2.84,0,0,1,65,50.36l13-7.46a1.27,1.27,0,0,1,1.42,0l12.94,7.46a2.87,2.87,0,1,1-2.84,5L78.68,49.16,67.94,55.34A3,3,0,0,1,63.89,54.28Z"/><path class="b" d="M90.7,58.47H66.52a1.43,1.43,0,0,0-1.42,1.42V73.83a3.2,3.2,0,0,0,6.4,0V64.16h3.84v9.67a3.2,3.2,0,1,0,6.4,0V64.16h3.84v9.67a3.2,3.2,0,1,0,6.4,0V59.89A1.24,1.24,0,0,0,90.7,58.47ZM19.8,67.79A10,10,0,0,0,18.38,67a4.14,4.14,0,0,0,2.35-3.69c0-.71,0-4.91-5.76-4.91H6.29a.49.49,0,0,0-.5.5V76.46a.49.49,0,0,0,.5.5h9.17c5.91,0,6.33-4.41,6.33-5.33A4.72,4.72,0,0,0,19.8,67.79Zm-8.39-5.12h1.92a4.52,4.52,0,0,1,1.35.21,1.33,1.33,0,0,1,.71,1.21c0,.85-.57,1.35-2.06,1.35H11.41V62.67Zm2.13,10.16H11.41v-3h2.13c1.64,0,2.42.64,2.42,1.49S15.25,72.83,13.54,72.83Zm181.9-15.78a6.6,6.6,0,0,0,5.69-2.7.48.48,0,0,0-.15-.71l-2.77-1.36a.6.6,0,0,0-.71.22,2.64,2.64,0,0,1-2.2,1.14,2.74,2.74,0,0,1-2.21-1.14.52.52,0,0,0-.71-.22l-2.77,1.36a.55.55,0,0,0-.15.71A7.6,7.6,0,0,0,195.44,57.05ZM54.64,62.81a5,5,0,0,1,3.7,1.78.56.56,0,0,0,.78,0l2.56-3.2a.56.56,0,0,0,0-.79,10.44,10.44,0,0,0-7-2.48c-5.41,0-9.46,3.76-9.46,9.6,0,3.84,2.34,9.59,9.46,9.59a10,10,0,0,0,7-2.56.54.54,0,0,0,0-.78L59.2,70.84a.57.57,0,0,0-.79,0,5.05,5.05,0,0,1-3.69,1.78c-1.92,0-3.84-1.56-3.84-4.9C50.73,65,52.16,62.81,54.64,62.81ZM33.45,58.12c-5.4,0-9.45,3.76-9.45,9.6,0,3.84,2.34,9.59,9.45,9.59s9.46-5.75,9.46-9.59C42.91,61.88,38.86,58.12,33.45,58.12Zm0,14.64c-1.92,0-3.84-1.56-3.84-5,0-2.78,1.43-5,3.84-5s3.84,2.2,3.84,5C37.29,71.13,35.3,72.76,33.45,72.76Zm120.6-14.29h-4.62a.49.49,0,0,0-.5.5v6.47h-5.47V59a.49.49,0,0,0-.5-.5h-4.62a.48.48,0,0,0-.5.5V76.53a.48.48,0,0,0,.5.5H143a.49.49,0,0,0,.5-.5V69.71h5.47v6.82a.49.49,0,0,0,.5.5h4.62a.48.48,0,0,0,.5-.5V59C154.62,58.68,154.34,58.47,154.05,58.47Zm49.14,0h-4.84a.52.52,0,0,0-.49.29l-5.12,9.6V59a.49.49,0,0,0-.5-.5h-4.55a.48.48,0,0,0-.5.5V76.53a.48.48,0,0,0,.5.5h4.83a.71.71,0,0,0,.5-.28l5.12-9.6v9.38a.48.48,0,0,0,.5.5h4.62a.49.49,0,0,0,.5-.5V59A.55.55,0,0,0,203.19,58.47Zm-98.27-.35c-5.41,0-9.46,3.76-9.46,9.6,0,3.84,2.35,9.59,9.46,9.59s9.45-5.75,9.45-9.59C114.37,61.88,110.32,58.12,104.92,58.12Zm0,14.64c-1.92,0-3.84-1.56-3.84-5,0-2.78,1.42-5,3.84-5s3.84,2.2,3.84,5C108.76,71.13,106.84,72.76,104.92,72.76Zm77.29-14.29h-4.62a.49.49,0,0,0-.5.5V76.53a.49.49,0,0,0,.5.5h4.62a.48.48,0,0,0,.5-.5V59C182.78,58.68,182.57,58.47,182.21,58.47Zm-14.93,6.76h-2.63V59a.49.49,0,0,0-.5-.5h-4.62a.48.48,0,0,0-.5.5V76.53a.48.48,0,0,0,.5.5h7.82c4.84,0,7.4-2.06,7.4-6S172,65.23,167.28,65.23Zm-.5,7.6h-2.2V69.49h2.2a2.5,2.5,0,0,1,1.42.29,1.34,1.34,0,0,1,.79,1.35C169,72.55,167.63,72.83,166.78,72.83ZM132.93,58.47h-4.62a.49.49,0,0,0-.5.5v7.61c-4.4.64-5.19-.93-5.19-2.28V59a.48.48,0,0,0-.49-.5H117.5a.51.51,0,0,0-.49.43v3.7c0,2,.07,4.19.14,4.9.42,2.49,2.7,3.49,5,3.7a17.57,17.57,0,0,0,5.68-.36v5.69a.49.49,0,0,0,.5.5h4.62a.48.48,0,0,0,.5-.5V59A.48.48,0,0,0,132.93,58.47Zm140.16,0h-4.62a.48.48,0,0,0-.5.5v6.47h-5.48V59a.48.48,0,0,0-.5-.5h-4.62a.48.48,0,0,0-.49.5V76.53a.48.48,0,0,0,.49.5H262a.48.48,0,0,0,.5-.5V69.71H268v6.82a.48.48,0,0,0,.5.5h4.62a.49.49,0,0,0,.5-.5V59A.49.49,0,0,0,273.09,58.47Zm-45.51,7h-4.05V62.67H232a.5.5,0,0,0,.5-.5V59a.49.49,0,0,0-.5-.5H218.41a.48.48,0,0,0-.5.5V76.53a.48.48,0,0,0,.5.5h9.17c5.9,0,6.33-4.27,6.33-5.83S233.48,65.44,227.58,65.44Zm-1.92,7.39h-2.13V69.64h2.13c1.63,0,2.42.56,2.42,1.56S227.37,72.83,225.66,72.83Zm62.86-5.11,5.62-8.47a.42.42,0,0,0,.07-.28.49.49,0,0,0-.5-.5H288.8a.38.38,0,0,0-.42.29l-4.77,7.89V59a.48.48,0,0,0-.5-.5h-4.62a.49.49,0,0,0-.5.5V76.53a.49.49,0,0,0,.5.5h4.62a.48.48,0,0,0,.5-.5V68.92l4.77,7.9a.58.58,0,0,0,.42.28h4.91a.49.49,0,0,0,.5-.5c0-.14,0-.21-.07-.28Zm-40.89-9a.53.53,0,0,0-.5-.36h-4.9a.53.53,0,0,0-.5.36l-6.68,17.49v.21a.48.48,0,0,0,.49.5h4.84a.54.54,0,0,0,.5-.36l.85-2.7h5.9l.85,2.7a.54.54,0,0,0,.5.36h4.84a.49.49,0,0,0,.5-.5v-.21Zm-4.69,10.95,1.7-5.62,1.71,5.62Z"/></svg>