<svg xmlns="http://www.w3.org/2000/svg" xmlns:xlink="http://www.w3.org/1999/xlink" viewBox="0 0 300 120"><defs><style>.a{fill:none;}.b{fill:#170030;}.c{fill:#009c32;}.d{clip-path:url(#a);}.e{fill:#fff;fill-rule:evenodd;}</style><clipPath id="a"><rect class="a" y="160" width="300" height="120"/></clipPath></defs><title>банки</title><path class="b" d="M52.6,71.16a1,1,0,0,0-1.1,1.18v6H42.32v-6a1.11,1.11,0,1,0-2.21,0V86.78a1.11,1.11,0,1,0,2.21,0v-6.4H51.5v6.4a1.11,1.11,0,1,0,2.21,0V72.34c0-.76-.42-1.18-1.11-1.18m11.32,8.19L70.28,73a1.16,1.16,0,0,0,.42-.88.9.9,0,0,0-1-.91,1.1,1.1,0,0,0-.83.38l-6.25,6.25a1.57,1.57,0,0,1-1.18.53h-1.3v-6a1.11,1.11,0,1,0-2.21,0V86.78a1.11,1.11,0,1,0,2.21,0v-6.4h1.15a1.59,1.59,0,0,1,1.18.53l6.62,6.63a1.11,1.11,0,0,0,.88.38,1,1,0,0,0,1-1,1.37,1.37,0,0,0-.46-1ZM77.67,51.27a8,8,0,0,1-3.66.88c-2.13,0-3.47-.92-3.47-2.55C70.54,48.15,71.69,47,74,47a12.86,12.86,0,0,1,3.66.57ZM74.32,37.86a12,12,0,0,0-4.61.92c-.92.38-1.3.87-1.3,1.6a1.42,1.42,0,0,0,1.41,1.44,3.88,3.88,0,0,0,1.22-.3,9,9,0,0,1,3-.57c2.55,0,3.62.95,3.62,2.93v1.33a15.55,15.55,0,0,0-4.08-.57c-4.19,0-6.25,2.4-6.25,5,0,3,2.29,5.34,6.37,5.34a12.6,12.6,0,0,0,6.55-1.72A1.26,1.26,0,0,0,80.87,52V43.92c0-4.15-2.36-6.06-6.55-6.06m40.19,10.78a1.58,1.58,0,0,0-1.45,1,3.95,3.95,0,0,1-7.43-1.41,19.13,19.13,0,0,1,0-3.55,3.95,3.95,0,0,1,7.43-1.41,1.66,1.66,0,0,0,1.45,1,1.51,1.51,0,0,0,1.63-1.53,3.15,3.15,0,0,0-.49-1.52,6.75,6.75,0,0,0-6.13-3.28c-4.12,0-6.86,2.59-7.2,6.29a28,28,0,0,0,0,4.49c.34,3.7,3.08,6.29,7.2,6.29a6.67,6.67,0,0,0,6.13-3.28,3.09,3.09,0,0,0,.46-1.52,1.46,1.46,0,0,0-1.6-1.49M39.69,52l-5.76-5.75,5.45-5.45A1.86,1.86,0,0,0,40,39.42,1.36,1.36,0,0,0,38.62,38a1.74,1.74,0,0,0-1.3.65L31.8,44.19a1.39,1.39,0,0,1-1.07.45H29.59V39.73a1.68,1.68,0,1,0-3.35,0V53a1.68,1.68,0,1,0,3.35,0v-5.3h.95a1.59,1.59,0,0,1,1.07.46l5.91,5.9a1.81,1.81,0,0,0,1.37.69,1.42,1.42,0,0,0,1.48-1.49A2.16,2.16,0,0,0,39.69,52m56.07-3.77a3.63,3.63,0,0,1-3.92,3.54,7.12,7.12,0,0,1-3.58-.92V42a7.23,7.23,0,0,1,3.58-.95,3.63,3.63,0,0,1,3.92,3.55,21.4,21.4,0,0,1,0,3.58M92,37.86a12.6,12.6,0,0,0-6.17,1.6c-.76.46-.84.8-.84,2.1v17a1.68,1.68,0,1,0,3.36,0V54.13a9.57,9.57,0,0,0,4,.84,6.62,6.62,0,0,0,6.86-6.25,31.69,31.69,0,0,0,0-4.57c-.39-3.74-3.05-6.29-7.17-6.29m-58,47.05a10,10,0,0,1-4.42,1.14c-2.75,0-4.31-1.18-4.31-3.16,0-1.79,1.37-3.16,4.31-3.16a15.48,15.48,0,0,1,4.42.72ZM30,71a12.73,12.73,0,0,0-4.8,1c-.68.3-1,.61-1,1.14a1,1,0,0,0,1,1,2.16,2.16,0,0,0,.88-.27,10,10,0,0,1,3.69-.76c2.86,0,4.16,1.14,4.16,3.73v1.53a14.71,14.71,0,0,0-4.61-.69c-4.16,0-6.29,2.4-6.29,5.11C23,85.94,25.4,88,29.17,88a11.63,11.63,0,0,0,6.4-1.75,1,1,0,0,0,.46-1V76.76C36.07,72.87,33.78,71,30,71m-16,14.62H7.72V76.8h6.21c3.28,0,4.61,1.6,4.61,4.34s-1.37,4.49-4.61,4.49M14.2,74.7H7.69V67.88H18.54a1.09,1.09,0,1,0,0-2.17H7.42a1.75,1.75,0,0,0-1.94,1.94V85.82a1.77,1.77,0,0,0,1.94,2H14.2c4.15,0,6.59-2.44,6.59-6.67,0-4.08-2.44-6.4-6.59-6.4M52.45,44.19H57.9c2.59,0,3.73,1.33,3.73,3.58s-1.14,3.69-3.73,3.69H52.45Zm-.84,10.47h6.67c4.3,0,6.85-2.51,6.85-7,0-4.19-2.55-6.55-6.85-6.55H52.45V35.77H62.2a1.62,1.62,0,1,0,0-3.24H51.61A2.33,2.33,0,0,0,49,35.12V52a2.34,2.34,0,0,0,2.59,2.63m-41.37-10,3-8.68c.11-.31.23-.42.45-.42s.35.11.42.42l3.05,8.68Zm13.45,8.53a2.57,2.57,0,0,0-.23-1.06l-6.17-16.8c-.73-2.06-1.83-2.94-3.55-2.94s-2.82.88-3.54,2.94L4,52.15a3.11,3.11,0,0,0-.23,1.06,1.61,1.61,0,0,0,1.68,1.6,1.7,1.7,0,0,0,1.71-1.37l2-5.71h9.15l2,5.71A1.68,1.68,0,0,0,22,54.78a1.56,1.56,0,0,0,1.68-1.57"/><path class="c" d="M297.89,58.31A14.77,14.77,0,0,0,281.17,49l-14.93,2.67a4.57,4.57,0,1,0,1.6,9L282.77,58a5.75,5.75,0,0,1,6.63,3.69,5.69,5.69,0,0,1-2.33,7.2L265.13,83.11a6.48,6.48,0,0,1-10-5.44V31.57a4.57,4.57,0,0,0-9.14,0v46A15.57,15.57,0,0,0,270.08,90.7L292,76.49a14.74,14.74,0,0,0,5.86-18.18M220.75,49l-14.93,2.67a4.57,4.57,0,1,0,1.6,9L222.35,58a6,6,0,0,1,4.3,10.9L204.71,83.08a6.49,6.49,0,0,1-10-5.45v-35a15.62,15.62,0,0,0-24.11-13.11L115.45,65.29a15.08,15.08,0,0,0,10.9,27.5l48.15-8.65a4.57,4.57,0,1,0-1.6-9L124.75,83.8a6,6,0,0,1-4.31-10.9l55.13-35.73a6.48,6.48,0,0,1,10,5.45v35A15.54,15.54,0,0,0,209.66,90.7l22-14.21A15.08,15.08,0,0,0,220.75,49"/><g class="d"><polygon class="e" points="0 64.88 299.62 64.88 299.62 364.5 0 364.5 0 64.88 0 64.88"/></g></svg>