<svg xmlns="http://www.w3.org/2000/svg" xmlns:xlink="http://www.w3.org/1999/xlink" viewBox="0 0 300 120"><defs><style>.a,.g{fill:none;}.b{clip-path:url(#a);}.c,.f{fill:#fff;}.c,.d,.e,.f{fill-rule:evenodd;}.d,.e{fill:#253081;}.e,.f,.g{stroke:#253081;stroke-miterlimit:2.61;stroke-width:1.35px;}</style><clipPath id="a"><rect class="a" width="300" height="120"/></clipPath></defs><title>банки</title><g class="b"><polygon class="c" points="0 -95.12 299.62 -95.12 299.62 204.5 0 204.5 0 -95.12 0 -95.12"/><polygon class="d" points="71.36 73.42 64.7 73.42 67.74 68.07 60.2 54.64 66.95 54.64 70.87 62.62 74.78 54.64 81.44 54.64 71.36 73.42 71.36 73.42"/><path class="d" d="M155.44,73.42h-8.32c-4.6,0-8.22-3.8-8.22-9.15,0-6,3.62-9.63,8.22-9.63h8.32v4.67h-5.39c-3.22,0-5.08,1-5.08,4.86s1.86,4.58,5.08,4.58h5.39v4.67Z"/><polygon class="d" points="177.27 73.42 171.1 73.42 171.1 60.19 164.05 73.42 156.71 73.42 156.71 54.64 162.78 54.64 162.78 67.48 169.83 54.64 177.27 54.64 177.27 73.42 177.27 73.42"/><polygon class="d" points="97.89 73.42 105.81 54.64 112.67 54.64 119.22 70.21 125.78 54.64 132.53 54.64 140.46 73.42 134 73.42 129.21 59.89 124.31 73.42 120.5 73.42 117.85 73.42 114.13 73.42 112.67 69.53 105.81 69.53 104.34 73.42 97.89 73.42 97.89 73.42"/><polygon class="c" points="109.24 59.89 107.28 65.24 111.2 65.24 109.24 59.89 109.24 59.89"/><path class="d" d="M88,73.42H81.93V54.64H94.56c6.36,0,6.36,5.25,6.36,6.42s0,6.91-6.36,6.91H88v5.45Z"/><path class="c" d="M88,63.3h4.4c.69,0,2.45,0,2.45-2s-1.76-1.95-2.45-1.95H88v4Z"/><path class="d" d="M196.35,54.64v4.67H184.61v2.43h6.16c6.46,0,6.46,3.7,6.46,5.74s0,5.94-6.36,5.94H178.44V54.64Z"/><path class="c" d="M184.61,66.12V69h5.18c1.37,0,1.37-1.07,1.37-1.56s0-1.36-1.37-1.36Z"/><path class="e" d="M243.43,66.7a2.84,2.84,0,0,1-1.27,2.53,5.73,5.73,0,0,1-3.62,1h-3.82V58h7.93v1h-6.56V63.3h2.55c1.86,0,3.23.39,4,1.36a2.56,2.56,0,0,1,.78,2Z"/><path class="f" d="M242,66.7a2,2,0,0,0-.68-1.65,4.78,4.78,0,0,0-2.94-.78h-2.25v5h2.16a4.35,4.35,0,0,0,3-.87A2,2,0,0,0,242,66.7Z"/><polygon class="e" points="258.7 70.21 257.43 70.21 255.86 66.8 249.31 66.8 247.84 70.21 246.47 70.21 251.65 57.95 253.22 57.95 258.7 70.21 258.7 70.21"/><polygon class="f" points="255.47 65.83 252.93 60.19 252.44 59.12 252.05 60.19 249.7 65.83 255.47 65.83 255.47 65.83"/><polygon class="e" points="272.01 70.21 270.74 70.21 270.74 64.37 263.5 64.37 263.5 70.21 262.23 70.21 262.23 57.95 263.5 57.95 263.5 63.3 270.74 63.3 270.74 57.95 272.01 57.95 272.01 70.21 272.01 70.21"/><line class="g" x1="215.44" y1="49.78" x2="215.44" y2="77.99"/><path class="d" d="M32.79,45.3a3.11,3.11,0,0,1,1.38.2l-.1-12.75h1.56a123.42,123.42,0,0,0,.49,13,18.6,18.6,0,0,1,6.07,33.95c-.1-.1-.29-.39-.49-.58h0c-5.58-7.11-7-17.71-7.34-26.95a21.32,21.32,0,0,0,2.35.39,39.48,39.48,0,0,0,10.08,21A12.5,12.5,0,0,0,46,56.88a18.6,18.6,0,0,0-9-5.35,20.55,20.55,0,0,0-5-.59,21.8,21.8,0,0,0-5,.59C19.78,53.38,14.39,59,14.39,65.73a13.5,13.5,0,0,0,2.74,7.88,38.77,38.77,0,0,0,10.09-21c.78-.1,1.56-.2,2.44-.39C29.27,61.45,27.9,72,22.32,79.06V79a5.12,5.12,0,0,1-.59.78A18.69,18.69,0,0,1,28,45.79c.49-9.53.39-13,.39-13H30l-.1,12.75a2.82,2.82,0,0,1,1.27-.2V26.53h1.66V45.3Zm.1,6.81c.2,8.85.79,19.94,3.72,27.43.3.78.78,1.66,1.18,2.44a23.36,23.36,0,0,1-5.78.87A22,22,0,0,1,26.24,82c.49-1,.88-1.85,1.27-2.73,2.74-7.39,3.52-18.38,3.62-27.14h1.76Z"/><polygon class="e" points="286.4 70.21 284.74 70.21 278.38 63.98 278.28 70.21 277.1 70.21 277.1 57.95 278.28 57.95 278.28 63.49 284.25 57.95 285.72 57.95 279.55 63.69 286.4 70.21 286.4 70.21"/></g></svg>