<svg xmlns="http://www.w3.org/2000/svg" viewBox="0 0 300 120"><defs><style>.a{fill:#fff;}.a,.b{fill-rule:evenodd;}.b{fill:#1e3262;}</style></defs><title>банки</title><path class="a" d="M62.8,60A31.12,31.12,0,1,1,31.68,28.88,31.14,31.14,0,0,1,62.8,60"/><path class="b" d="M1.08,60A30.59,30.59,0,1,1,31.68,90.6,30.64,30.64,0,0,1,1.08,60M0,60a31.66,31.66,0,1,0,31.68-31.7A31.71,31.71,0,0,0,0,60"/><path class="b" d="M51.84,56.78c-.26.22-.52.41-.78.64-1.75,1.33-4.54,2.41-8.37,3.42C34.74,63,29,63.29,22.42,64.89a28.12,28.12,0,0,0-3.86,1.27,40.61,40.61,0,0,0,3.9,1.71,51.72,51.72,0,0,1,7.81-1.75c1.48-.26,6-1.08,9.29-1.74,5.92-1.27,14.58-4,12.28-7.6M48,49.34a30.9,30.9,0,0,0-4.5-1.56,10.28,10.28,0,0,1-2.87,1.6,53.71,53.71,0,0,1,5.43,1.45c.3.15,1.71-1.15,1.94-1.49M19,57.27c7.73-2.28,15.84-3,24.06-5.17a18.61,18.61,0,0,0-8.36-.82,94.07,94.07,0,0,0-15,3c-1.83.56-11.38,3.27-8.63,7.07,0,0,1.63-2.27,7.92-4.09m-5.32,13c0,.71.41,1.35,1.34,2.13a3.42,3.42,0,0,1,.56-1c-.63-.34-1.27-.67-1.9-1.09M17.33,70a11.5,11.5,0,0,1,2.08-1c-1.08-.49-2.23-1-3.35-1.49a11.91,11.91,0,0,0-1.37,1c.89.52,1.75,1,2.64,1.49M47,53.51a38.3,38.3,0,0,1-7,2.27c-2.64.67-9,1.6-15.91,3.08-2.16.49-8.08,1.86-11,4.32a13.74,13.74,0,0,0,2.23,1.34,17.46,17.46,0,0,1,5.25-2.16A110,110,0,0,1,31.8,60.13a97,97,0,0,0,14.76-3.46,10.84,10.84,0,0,0,3.34-1.75A11.92,11.92,0,0,0,47,53.51m2.27-1.38a12.13,12.13,0,0,1,2.15,1.12c.49-.93.19-1.53-.81-2.38a8.83,8.83,0,0,1-1.34,1.26m-36,13.95c-.71-.37-1.15-.67-1.75-1-.3.67.3,1.41.9,1.75.25-.26.59-.48.85-.71M46.22,44.73a5,5,0,0,1-1.08,1.57,31.88,31.88,0,0,1,3.46,1.15c-.15-1.05-1.34-2.05-2.38-2.72M9.85,51.31C18,46,26.92,42.91,42.09,45.55a2.82,2.82,0,0,0,1.53-1.94c-3.8-1.37-7.92-1.86-13.24-1.78-4.76.15-13.35,1.93-18,4.65l1.41-1.75c3.2-1.9,11.57-4.39,17.85-4.5a34.72,34.72,0,0,1,12,1.56c-.49-.89-1.57-1.34-3.17-2.08-5.09-2.27-14.57-2.5-22.34,1a17.56,17.56,0,0,1,3.2-1.82,27.83,27.83,0,0,1,12-2.23c4.21.07,9.19,1.52,12.24,4.54a4.41,4.41,0,0,1,.93,1.75c2.42,1.22,3.83,2.38,4.61,3.71a3.68,3.68,0,0,1,.3,2.31,6.4,6.4,0,0,1,2,1.79,5.05,5.05,0,0,1,.67,1.75,3,3,0,0,1-.6,2.6,3.55,3.55,0,0,1,1.56,2c.41,1.82-.78,3.6-2.3,5a25.7,25.7,0,0,1-8.93,4.25c-6.32,1.59-11.93,2.27-16.39,3.08a35,35,0,0,0,9.14,1.12,42.7,42.7,0,0,0,17.85-4.47s-.18.57-.37,1.09c-6,3.64-15.58,5.16-19.67,5a44,44,0,0,1-11-1.86,30.13,30.13,0,0,0-3.08,1,36,36,0,0,0,13.57,3.23c4.54.34,12-.74,18.37-3-.3.3-.45.74-.74,1a42.06,42.06,0,0,1-13.54,3.57,52.55,52.55,0,0,1-11.23-.67,38.81,38.81,0,0,1-8.37-2.79A2.21,2.21,0,0,0,17.51,74c10.46,5.47,20.2,5.58,31.32,2.12l-1,1c-12.23,5-21.79,3-29.19-.52a4.7,4.7,0,0,1-.78-.38c.71,1.2,6.36,5.33,12.68,5.85a31.78,31.78,0,0,0,12.83-1.64l-1.86,1a22.38,22.38,0,0,1-11.23,2.08,21.69,21.69,0,0,1-13.69-5.61A5.31,5.31,0,0,1,15,74.9a8.69,8.69,0,0,1-3.68-3.24,3.46,3.46,0,0,1-.3-2.49l.23-.66a7.34,7.34,0,0,1-2-1.86,3.21,3.21,0,0,1,.23-3.39,5.24,5.24,0,0,1-1-1.56,3.91,3.91,0,0,1-.19-1.87,5.93,5.93,0,0,1,1.52-3C11.42,54.89,14,53.4,18.44,52a76.79,76.79,0,0,1,9.38-2.43c3.83-.88,8.4-1.18,12.23-2.52-10.67-1.86-21.75-.15-30.79,6.06Z"/><path class="b" d="M103.22,54.48,104.45,63H102ZM93.67,73.86h6.51l.81-4.8h4.5l.78,4.8h6.51l-5.5-27.76H99.17Z"/><path class="b" d="M119,56.86a2.81,2.81,0,0,0,2.94-2.72,2.54,2.54,0,0,0-2.83-2.57,8.37,8.37,0,0,0-3.53.79l-.07-6a20.77,20.77,0,0,1,5.61-.71c5.28,0,7.63,3.68,7.63,7.29a6.69,6.69,0,0,1-4,6.44v.26c1.89.6,4.42,2.42,4.42,6.66,0,5.25-3.64,8.14-8.33,8.14a11.68,11.68,0,0,1-6.1-1.44l.11-5.77a9.76,9.76,0,0,0,4.28.85,2.68,2.68,0,0,0,2.9-2.64c0-1.56-1-2.6-3.2-2.6h-2.6v-6Z"/><polygon class="b" points="132.15 46.1 149.7 46.1 149.7 73.86 143.27 73.86 143.27 52.8 138.59 52.8 138.59 73.86 132.15 73.86 132.15 46.1"/><path class="b" d="M159.82,52.21h1.52c1.45,0,2.38.89,2.38,3.2,0,3-1.56,3.19-2.38,3.19h-1.52Zm-6.44,21.65h6.44V64.71H162c6.35,0,8.32-5.73,8.32-9.38S168,46.1,162,46.1h-8.6Z"/><path class="b" d="M182.2,67.46c-2.27,0-3.42-2.64-3.42-7.51s1.15-7.52,3.42-7.52,3.42,2.64,3.42,7.52-1.15,7.51-3.42,7.51m0,6.73c7.63,0,10.19-7.14,10.19-14.24S189.83,45.7,182.2,45.7,172,52.84,172,60s2.56,14.24,10.18,14.24"/><path class="b" d="M226.71,68.28V62h.93c.78,0,2.79,0,2.79,2.9s-2,3.39-2.79,3.39Zm-6.28,5.58h7.66c1.67,0,8.62-.71,8.66-9.12,0-7.06-5.39-8.29-8.89-8.29h-1.15V52.77h8.52V46.11h-14.8Z"/><polygon class="b" points="259.88 46.1 266.17 46.1 266.17 56.11 270.67 56.11 270.67 46.1 276.95 46.1 276.95 73.86 270.67 73.86 270.67 62.73 266.17 62.73 266.17 73.86 259.88 73.86 259.88 46.1"/><polygon class="b" points="281.18 46.1 287.51 46.1 287.47 56.07 288.84 56.07 292.45 46.1 299.29 46.1 294.38 59.28 300 73.86 292.6 73.86 288.96 62.7 287.47 62.7 287.51 73.86 281.18 73.86 281.18 46.1"/><polygon class="b" points="81.21 46.1 94.41 46.1 94.41 53.02 87.75 53.02 87.75 73.86 81.21 73.86 81.21 46.1"/><polygon class="b" points="195.48 46.1 200.95 46.1 205.77 52.65 210.65 46.1 216.08 46.1 216.08 73.86 209.64 73.86 209.64 56.93 205.77 61.77 201.91 56.93 201.91 73.86 195.48 73.86 195.48 46.1"/><path class="b" d="M247.57,54.55,248.76,63h-2.42ZM238,73.89h6.54l.79-4.79h4.49l.78,4.79h6.55l-5.5-27.74h-8.11Z"/></svg>