<svg xmlns="http://www.w3.org/2000/svg" xmlns:xlink="http://www.w3.org/1999/xlink" viewBox="0 0 300 120"><defs><style>.a{fill:#fff;}.a,.b,.d{fill-rule:evenodd;}.b{fill:#009fdf;}.c{mask:url(#a);}.d{fill:#0a2973;}</style><mask id="a" x="128.34" y="45.17" width="90.04" height="39.83" maskUnits="userSpaceOnUse"><polygon class="a" points="128.34 85 218.38 85 218.38 45.17 128.34 45.17 128.34 85"/></mask></defs><title>банки</title><path class="b" d="M88.48,35.3l-2.37,6.5H119l2.37-6.5Zm-3.56,9.75-2.37,6.5h32.89l2.37-6.5ZM81.37,54.8,79,61.3h32.89l2.37-6.5Z"/><g class="c"><path class="d" d="M148.92,63.78v.13a14.08,14.08,0,0,1,3.69,2.14A9.42,9.42,0,0,1,156,73.84c0,5.44-2.87,9.37-7.59,10.61a20.07,20.07,0,0,1-5.74.55H128.34V45.17H141a23.39,23.39,0,0,1,5.95.55c4.58,1.24,7.59,4.41,7.59,9.44A8.86,8.86,0,0,1,152,61.64,9.62,9.62,0,0,1,148.92,63.78ZM136.27,68V78.45h5.47c1.64,0,3.15-.13,4.24-1.17a5.22,5.22,0,0,0,1.57-4.06,5.75,5.75,0,0,0-1-3.45c-1.16-1.45-2.6-1.79-5.06-1.79Zm-.07-6.89h4.45a9.29,9.29,0,0,0,2.73-.21,4.34,4.34,0,0,0,3-4.48c0-2.68-1.23-3.86-3-4.41a11.07,11.07,0,0,0-3-.27H136.2ZM167.86,85V51.86H156.44V45.17h31.72l-2.25,6.69H175.79V85Zm22.76,0V45.17h25.71l-2.26,6.69H198.49v8.82h6.35c5.13,0,7.8,1.24,9.64,2.82,1.44,1.24,3.9,4,3.9,9.44s-2.53,8.34-4.65,9.85c-2.46,1.73-5.06,2.21-10.32,2.21Zm7.87-6.68h5.94c2.26,0,3.63-.56,4.58-1.8a5.77,5.77,0,0,0,1.17-3.79,5.27,5.27,0,0,0-2.05-4.54,5.89,5.89,0,0,0-3.76-1h-5.88Z"/></g></svg>