<svg xmlns="http://www.w3.org/2000/svg" viewBox="0 0 300 120"><defs><style>.a{fill:#2f9a41;}</style></defs><title>банки</title><path class="a" d="M83.49,66.15A12.17,12.17,0,0,0,87.72,69a16.54,16.54,0,0,0,6.07,1c1.19,0,2.3-.15,3.21-.23a12.37,12.37,0,0,0,2.67-.64c.81-.22,1.48-.59,2.14-.81a16.48,16.48,0,0,1,1.63-.81l-.82-1.74c-.45.22-.9.44-1.42.64a14.71,14.71,0,0,1-1.48.59,7.32,7.32,0,0,1-1.85.37,12.56,12.56,0,0,1-2.45.15,8,8,0,0,1-4.22-1,8.31,8.31,0,0,1-2.67-2.67,13.27,13.27,0,0,1-1.28-4,35.39,35.39,0,0,1-.37-5c0-1.41.14-2.89.22-4.37a10.83,10.83,0,0,1,1.06-3.86,8.09,8.09,0,0,1,2.29-2.9,7.75,7.75,0,0,1,4.16-1.18,7.09,7.09,0,0,1,4.15,1.28,5.59,5.59,0,0,1,2.14,3.93h1.86V42.06c-.59-.22-1.19-.44-1.86-.64A10.3,10.3,0,0,0,98.76,41a22.63,22.63,0,0,0-2.3-.22c-.64,0-1.41-.15-1.92-.15a18.6,18.6,0,0,0-6.45,1,11,11,0,0,0-6.89,7.69,21,21,0,0,0-.82,6.3,19.39,19.39,0,0,0,.82,6A10.43,10.43,0,0,0,83.49,66.15Z"/><path class="a" d="M195.93,69.12a9.89,9.89,0,0,0,3.78-1.19A6.29,6.29,0,0,0,202.38,65a11.18,11.18,0,0,0,1-5.19,10.69,10.69,0,0,0-.64-4,6.57,6.57,0,0,0-2.15-2.74,10.72,10.72,0,0,0-3.93-1.48,26.7,26.7,0,0,0-5.85-.44H188.4V44.36a1.74,1.74,0,0,1,.44-1.41,3.9,3.9,0,0,1,1.85-.23h3.48a14.9,14.9,0,0,1,2.67.15,3,3,0,0,1,1.63.6,3.4,3.4,0,0,1,1,1.41,15.17,15.17,0,0,1,.81,2.44h1.44V41H180.6v.89c.15,0,.23.15.59.15s.6.22.64.37a2.27,2.27,0,0,1,.37.64c0,.37.15.64.15,1.19V66.12a2.81,2.81,0,0,1-.15,1.19c0,.37-.14.59-.37.64a1,1,0,0,1-.64.37,1.2,1.2,0,0,1-.59.15v.89h10.68A45.26,45.26,0,0,0,195.93,69.12Zm-7-2.08a1.06,1.06,0,0,1-.38-.81c0-.38-.14-.82-.14-1.41V52.89h2.44a6.07,6.07,0,0,1,4.75,1.7c1,1.12,1.41,3,1.41,5.49a14.57,14.57,0,0,1-.44,4,5.55,5.55,0,0,1-1.29,2.29,8.42,8.42,0,0,1-1.7,1,9.68,9.68,0,0,1-2.08.23c-.64-.15-1.28-.15-1.63-.23A1.36,1.36,0,0,1,188.94,67Z"/><path class="a" d="M165.69,68.45c-.15,0-.22-.15-.59-.15s-.6-.22-.64-.37-.23-.37-.37-.64-.15-.64-.15-1.19V58.22h2.89a26.08,26.08,0,0,0,4.23-.37,10.23,10.23,0,0,0,3.55-1.28,6.33,6.33,0,0,0,2.45-2.75,10.57,10.57,0,0,0,.89-4.74,11.05,11.05,0,0,0-.81-4.37,7.57,7.57,0,0,0-2.31-2.5,7.73,7.73,0,0,0-3.33-1,34.51,34.51,0,0,0-3.93-.22H156.28v.89c.15,0,.22.15.6.15s.59.22.64.37a2.89,2.89,0,0,1,.37.64c0,.37.15.64.15,1.19V66.05a3,3,0,0,1-.15,1.19c0,.37-.15.59-.37.64a1,1,0,0,1-.64.37,1.27,1.27,0,0,1-.6.15v.81h9.34l.07-.81Zm-1.56-24.31a1.19,1.19,0,0,1,.15-.64.63.63,0,0,1,.22-.44.91.91,0,0,1,.65-.23c.37,0,.64-.14,1.28-.14a17.93,17.93,0,0,1,2.07.22,4.92,4.92,0,0,1,1.71,1,7.79,7.79,0,0,1,1.19,1.92,11.83,11.83,0,0,1,.37,3,11.77,11.77,0,0,1-1,5.49A3.85,3.85,0,0,1,167,56.24h-2.89Z"/><path class="a" d="M152.57,62.82h-1.85a21.91,21.91,0,0,1-.64,2.66,2.65,2.65,0,0,1-.89,1.48,2.15,2.15,0,0,1-1.63.59,15.52,15.52,0,0,1-2.89.15,12.56,12.56,0,0,1-2.67-.15,4.59,4.59,0,0,1-1.48-.44,1.15,1.15,0,0,1-.59-.89,5.57,5.57,0,0,1-.15-1.63v-9h4.92c.44,0,.89.15,1.41.15a10.9,10.9,0,0,1,1.41.22,5.71,5.71,0,0,1,1.19.45V52.66a2.69,2.69,0,0,1-1.19.44,26.7,26.7,0,0,1-2.81.38h-5V44.05a4,4,0,0,1,.22-1.28c.23-.22.6-.22,1.19-.22h3.12a13.92,13.92,0,0,1,2.66.14,3.29,3.29,0,0,1,1.63.59,3.38,3.38,0,0,1,1,1.41,15.28,15.28,0,0,1,.81,2.45h1.48V41H132.12v.89c.14,0,.22.15.59.15s.59.22.64.37a2.54,2.54,0,0,1,.37.64c0,.37.15.64.15,1.19V66.05a3,3,0,0,1-.15,1.19c0,.37-.15.59-.37.64a1,1,0,0,1-.64.37,1.26,1.26,0,0,1-.59.15v.81h20.45Z"/><path class="a" d="M121.3,69.12a10,10,0,0,0,3.78-1.19A6.88,6.88,0,0,0,127.82,65a11.06,11.06,0,0,0,1-5.19,10.5,10.5,0,0,0-.64-4,6.5,6.5,0,0,0-2.15-2.74,10.66,10.66,0,0,0-3.93-1.48,26.7,26.7,0,0,0-5.85-.44h-2.45V44.36a1.81,1.81,0,0,1,.44-1.41,3.93,3.93,0,0,1,1.86-.23h3.48a14.79,14.79,0,0,1,2.66.15,3.3,3.3,0,0,1,1.63.6,3.24,3.24,0,0,1,1,1.41,15.17,15.17,0,0,1,.81,2.44h1.48V41H106v.89c.14,0,.22.15.59.15s.59.22.64.37a2.27,2.27,0,0,1,.37.64c0,.37.15.64.15,1.19V66.05a3,3,0,0,1-.15,1.19c0,.37-.14.59-.37.64a1,1,0,0,1-.64.37,1.23,1.23,0,0,1-.59.15v1H116.7C118.42,69.34,119.81,69.34,121.3,69.12Zm-7-2.08a1,1,0,0,1-.37-.81c0-.38-.15-.82-.15-1.41V52.89h2.45a6.06,6.06,0,0,1,4.74,1.7c1,1.12,1.41,3,1.41,5.49a14.57,14.57,0,0,1-.44,4,5.65,5.65,0,0,1-1.28,2.29,8.78,8.78,0,0,1-1.71,1,9.68,9.68,0,0,1-2.08.23c-.64-.15-1.18-.15-1.62-.23a1.28,1.28,0,0,1-1-.37Z"/><rect class="a" x="80.24" y="77.41" width="208.57" height="2.74"/><path class="a" d="M272.13,58.67c.59.81,1,1.48,1.63,2.15s1,1.41,1.48,2.07A17.82,17.82,0,0,0,276.72,65a21.28,21.28,0,0,1,1.48,2.29c.44.65.81,1.49,1.18,2.15l9.62.15c-1-1-1.92-2.08-3-3.12s-1.71-1.92-2.3-2.52c-.89-1-1.71-1.92-2.45-2.74s-1.48-1.7-2.14-2.52a28,28,0,0,1-1.93-2.52c-.52-.81-1.28-1.85-1.85-2.74l.44-.59c.64-.89,1.48-1.85,2.45-3a31.75,31.75,0,0,1,2.89-3.34c.94-1.08,1.94-2.12,3-3.1a28.86,28.86,0,0,1,2.67-2.15h-6.67a17.54,17.54,0,0,1-1,2.08A18.28,18.28,0,0,1,277.46,46c-.59.9-1.28,1.93-1.85,3s-1.28,1.92-1.93,2.89a26.8,26.8,0,0,1-1.85,2.52l-1.41,1.92C270.94,57,271.53,57.85,272.13,58.67Z"/><path class="a" d="M271.31,68.45c-.14,0-.22-.15-.59-.15s-.59-.22-.64-.37a2.58,2.58,0,0,1-.38-.64c0-.37-.14-.64-.14-1.19V44.31a2.83,2.83,0,0,1,.14-1.19c0-.37.15-.59.38-.64a2.54,2.54,0,0,1,.64-.37,1.23,1.23,0,0,1,.59-.15V41H262v.89c.15,0,.23.15.6.15s.59.22.64.37a2.73,2.73,0,0,1,.37.64c0,.37.15.64.15,1.19V66.1a3,3,0,0,1-.15,1.19c0,.37-.15.59-.37.64a1,1,0,0,1-.64.37,1.27,1.27,0,0,1-.6.15v.82h9.34Z"/><path class="a" d="M209.45,65.93c.37-1.63,1-3.93,1.92-6.82h9.12l1.28,3.71A27.16,27.16,0,0,1,223.05,67a9.53,9.53,0,0,1,.59,2.52h7.27c-.38-.59-.64-1.41-1.19-2.29a36.44,36.44,0,0,1-1.63-4L221.5,44.51a10.07,10.07,0,0,1-.59-2.08c-.15-.59-.15-1-.23-1.41h-8.15v.89c.15,0,.23.15.59.15s.59.22.64.37a2.77,2.77,0,0,1,.38.64v.59a4.51,4.51,0,0,1-.38,1.85l-4.59,11.27c-.82,2.07-1.63,3.93-2.15,5.26s-1.19,2.67-1.48,3.56-.82,1.7-1.19,2.29-.57,1-.81,1.48h5.19A28.78,28.78,0,0,1,209.45,65.93ZM216,45.62l3.73,11.49h-7.84Z"/><path class="a" d="M241.73,68.45h-.23c-.14,0-.22-.15-.59-.15s-.59-.22-.64-.37a2.58,2.58,0,0,1-.38-.64c0-.37-.14-.64-.14-1.19V55.21h11V66a2.64,2.64,0,0,1-.15,1.18c0,.38-.14.59-.37.64a1,1,0,0,1-.64.38,1.31,1.31,0,0,1-.59.14v.9h9.34v-.9c-.14,0-.22-.14-.59-.14-.37-.15-.59-.23-.64-.38a2.54,2.54,0,0,1-.37-.64c0-.37-.15-.64-.15-1.18v-22a3,3,0,0,1,.15-1.18c0-.38.15-.59.37-.65a3.14,3.14,0,0,1,.64-.37,1.35,1.35,0,0,1,.59-.14V41H249.2v.89c.14,0,.22.15.59.15s.59.22.64.37a2.54,2.54,0,0,1,.37.64c0,.37.15.64.15,1.19v9.14H240V44.14a2.78,2.78,0,0,1,.14-1.18c0-.38.15-.59.37-.65a3.21,3.21,0,0,1,.65-.37,1.08,1.08,0,0,1,.59-.14V41h-9.32v.89c.15,0,.22.15.59.15s.59.22.64.37a2.54,2.54,0,0,1,.37.64c0,.37.15.64.15,1.19V66.12a3,3,0,0,1-.15,1.19c0,.37-.14.59-.37.64a1,1,0,0,1-.64.37,1.2,1.2,0,0,1-.59.15v.89h9.34l-.08-1Z"/><path class="a" d="M61.26,43.92c-.6-.82-1.19-1.63-1.71-2.45L27.68,59.78,12.29,51a11.1,11.1,0,0,0-.64,3l16.18,9.36Z"/><path class="a" d="M27.68,66.67,11.15,57.18A7.06,7.06,0,0,0,11,59a27.35,27.35,0,1,0,54.7,0,26.93,26.93,0,0,0-3-12.45Z"/><path class="a" d="M57.33,39.17a30.12,30.12,0,0,0-2.45-2.07L27.68,52.89,14.56,45.4c-.44.81-.89,1.7-1.41,2.66l14.38,8.31Z"/><path class="a" d="M52.21,35.32A26,26,0,0,0,49,33.69L27.68,46l-9.56-5.39a25.93,25.93,0,0,0-1.92,2.3L27.61,49.4Z"/></svg>